<?xml version="1.0" encoding="UTF-8"?>
<svg width="1185px" height="83px" viewBox="0 0 1185 83" version="1.1" xmlns="http://www.w3.org/2000/svg" xmlns:xlink="http://www.w3.org/1999/xlink">
    <!-- Generator: Sketch 61.2 (89653) - https://sketch.com -->
    <title>Group 7</title>
    <desc>Created with Sketch.</desc>
    <g id="Page-1" stroke="none" stroke-width="1" fill="none" fill-rule="evenodd" opacity="0.698962984">
        <g id="Artboard" transform="translate(-200.000000, -417.000000)" fill="#D4EFEE">
            <g id="Group-4" transform="translate(200.500000, 199.750000)">
                <g id="Group-2">
                    <g id="Oval">
                        <g id="Group-7" transform="translate(-15.835895, 211.000000)">
                            <path d="M622.956507,185.513774 C995.273019,185.513774 1338.26532,204.827802 1294.16254,0 C1216.1557,47.741298 1095.98732,103.760888 672.407689,47.741298 C248.828058,-8.27829158 44.4905544,43.8122582 7.3102336,87.543857 C-29.8700872,131.275456 250.639994,185.513774 622.956507,185.513774 Z" id="Oval" style="mix-blend-mode: multiply;"></path>
                            <path d="M653.399909,170.228887 C1025.8017,170.228887 1388.459,208.203453 1344.34613,3 C1270.40825,27.5054447 948.692342,96.8981826 696.601907,49.9650642 C444.511472,3.03194591 202.43204,3.03194591 37.6126277,72.0792938 C-127.206784,141.126642 280.99812,170.228887 653.399909,170.228887 Z" id="Oval-Copy" style="mix-blend-mode: multiply;" transform="translate(674.000000, 88.000000) scale(-1, 1) translate(-674.000000, -88.000000) "></path>
                        </g>
                    </g>
                </g>
            </g>
        </g>
    </g>
</svg>